<mxfile host="app.diagrams.net" modified="2024-05-07T00:14:19.597Z" agent="Mozilla/5.0 (Windows NT 10.0; Win64; x64) AppleWebKit/537.36 (KHTML, like Gecko) Chrome/121.0.0.0 Safari/537.36 OPR/107.0.0.0" etag="Rim6BVtnXy7G4TRHn-7p" version="24.3.1" type="device">
  <diagram name="Page-1" id="O0IrKu_V7lNNN28reUb5">
    <mxGraphModel dx="583" dy="616" grid="1" gridSize="10" guides="1" tooltips="1" connect="1" arrows="1" fold="1" page="1" pageScale="1" pageWidth="850" pageHeight="1100" math="0" shadow="0">
      <root>
        <mxCell id="0" />
        <mxCell id="1" parent="0" />
        <mxCell id="8Ad6xbHqiz1V-JdrsBlt-2" value="Users" style="swimlane;fontStyle=0;childLayout=stackLayout;horizontal=1;startSize=30;horizontalStack=0;resizeParent=1;resizeParentMax=0;resizeLast=0;collapsible=1;marginBottom=0;whiteSpace=wrap;html=1;" vertex="1" parent="1">
          <mxGeometry x="260" y="40" width="160" height="390" as="geometry" />
        </mxCell>
        <mxCell id="8Ad6xbHqiz1V-JdrsBlt-3" value="ID: serial" style="text;strokeColor=none;fillColor=none;align=left;verticalAlign=middle;spacingLeft=4;spacingRight=4;overflow=hidden;points=[[0,0.5],[1,0.5]];portConstraint=eastwest;rotatable=0;whiteSpace=wrap;html=1;" vertex="1" parent="8Ad6xbHqiz1V-JdrsBlt-2">
          <mxGeometry y="30" width="160" height="30" as="geometry" />
        </mxCell>
        <mxCell id="8Ad6xbHqiz1V-JdrsBlt-4" value="username: varchar(20)" style="text;strokeColor=none;fillColor=none;align=left;verticalAlign=middle;spacingLeft=4;spacingRight=4;overflow=hidden;points=[[0,0.5],[1,0.5]];portConstraint=eastwest;rotatable=0;whiteSpace=wrap;html=1;" vertex="1" parent="8Ad6xbHqiz1V-JdrsBlt-2">
          <mxGeometry y="60" width="160" height="30" as="geometry" />
        </mxCell>
        <mxCell id="8Ad6xbHqiz1V-JdrsBlt-21" value="name: varchar(100)" style="text;strokeColor=none;fillColor=none;align=left;verticalAlign=middle;spacingLeft=4;spacingRight=4;overflow=hidden;points=[[0,0.5],[1,0.5]];portConstraint=eastwest;rotatable=0;whiteSpace=wrap;html=1;" vertex="1" parent="8Ad6xbHqiz1V-JdrsBlt-2">
          <mxGeometry y="90" width="160" height="30" as="geometry" />
        </mxCell>
        <mxCell id="8Ad6xbHqiz1V-JdrsBlt-22" value="email: varchar(200)" style="text;strokeColor=none;fillColor=none;align=left;verticalAlign=middle;spacingLeft=4;spacingRight=4;overflow=hidden;points=[[0,0.5],[1,0.5]];portConstraint=eastwest;rotatable=0;whiteSpace=wrap;html=1;" vertex="1" parent="8Ad6xbHqiz1V-JdrsBlt-2">
          <mxGeometry y="120" width="160" height="30" as="geometry" />
        </mxCell>
        <mxCell id="8Ad6xbHqiz1V-JdrsBlt-24" value="password: varchar(30)" style="text;strokeColor=none;fillColor=none;align=left;verticalAlign=middle;spacingLeft=4;spacingRight=4;overflow=hidden;points=[[0,0.5],[1,0.5]];portConstraint=eastwest;rotatable=0;whiteSpace=wrap;html=1;" vertex="1" parent="8Ad6xbHqiz1V-JdrsBlt-2">
          <mxGeometry y="150" width="160" height="30" as="geometry" />
        </mxCell>
        <mxCell id="8Ad6xbHqiz1V-JdrsBlt-5" value="user_icon: bytea" style="text;strokeColor=none;fillColor=none;align=left;verticalAlign=middle;spacingLeft=4;spacingRight=4;overflow=hidden;points=[[0,0.5],[1,0.5]];portConstraint=eastwest;rotatable=0;whiteSpace=wrap;html=1;" vertex="1" parent="8Ad6xbHqiz1V-JdrsBlt-2">
          <mxGeometry y="180" width="160" height="30" as="geometry" />
        </mxCell>
        <mxCell id="8Ad6xbHqiz1V-JdrsBlt-84" value="biography: varchar(255)" style="text;strokeColor=none;fillColor=none;align=left;verticalAlign=middle;spacingLeft=4;spacingRight=4;overflow=hidden;points=[[0,0.5],[1,0.5]];portConstraint=eastwest;rotatable=0;whiteSpace=wrap;html=1;" vertex="1" parent="8Ad6xbHqiz1V-JdrsBlt-2">
          <mxGeometry y="210" width="160" height="30" as="geometry" />
        </mxCell>
        <mxCell id="8Ad6xbHqiz1V-JdrsBlt-85" value="phonenum: varchar(15)" style="text;strokeColor=none;fillColor=none;align=left;verticalAlign=middle;spacingLeft=4;spacingRight=4;overflow=hidden;points=[[0,0.5],[1,0.5]];portConstraint=eastwest;rotatable=0;whiteSpace=wrap;html=1;" vertex="1" parent="8Ad6xbHqiz1V-JdrsBlt-2">
          <mxGeometry y="240" width="160" height="30" as="geometry" />
        </mxCell>
        <mxCell id="8Ad6xbHqiz1V-JdrsBlt-86" value="cityfrom: integer" style="text;strokeColor=none;fillColor=none;align=left;verticalAlign=middle;spacingLeft=4;spacingRight=4;overflow=hidden;points=[[0,0.5],[1,0.5]];portConstraint=eastwest;rotatable=0;whiteSpace=wrap;html=1;" vertex="1" parent="8Ad6xbHqiz1V-JdrsBlt-2">
          <mxGeometry y="270" width="160" height="30" as="geometry" />
        </mxCell>
        <mxCell id="8Ad6xbHqiz1V-JdrsBlt-87" value="statefrom: integer" style="text;strokeColor=none;fillColor=none;align=left;verticalAlign=middle;spacingLeft=4;spacingRight=4;overflow=hidden;points=[[0,0.5],[1,0.5]];portConstraint=eastwest;rotatable=0;whiteSpace=wrap;html=1;" vertex="1" parent="8Ad6xbHqiz1V-JdrsBlt-2">
          <mxGeometry y="300" width="160" height="30" as="geometry" />
        </mxCell>
        <mxCell id="8Ad6xbHqiz1V-JdrsBlt-88" value="countryfrom: integer" style="text;strokeColor=none;fillColor=none;align=left;verticalAlign=middle;spacingLeft=4;spacingRight=4;overflow=hidden;points=[[0,0.5],[1,0.5]];portConstraint=eastwest;rotatable=0;whiteSpace=wrap;html=1;" vertex="1" parent="8Ad6xbHqiz1V-JdrsBlt-2">
          <mxGeometry y="330" width="160" height="30" as="geometry" />
        </mxCell>
        <mxCell id="8Ad6xbHqiz1V-JdrsBlt-89" value="active: bool" style="text;strokeColor=none;fillColor=none;align=left;verticalAlign=middle;spacingLeft=4;spacingRight=4;overflow=hidden;points=[[0,0.5],[1,0.5]];portConstraint=eastwest;rotatable=0;whiteSpace=wrap;html=1;" vertex="1" parent="8Ad6xbHqiz1V-JdrsBlt-2">
          <mxGeometry y="360" width="160" height="30" as="geometry" />
        </mxCell>
        <mxCell id="8Ad6xbHqiz1V-JdrsBlt-6" value="Stories" style="swimlane;fontStyle=0;childLayout=stackLayout;horizontal=1;startSize=30;horizontalStack=0;resizeParent=1;resizeParentMax=0;resizeLast=0;collapsible=1;marginBottom=0;whiteSpace=wrap;html=1;" vertex="1" parent="1">
          <mxGeometry x="460" y="600" width="140" height="150" as="geometry" />
        </mxCell>
        <mxCell id="8Ad6xbHqiz1V-JdrsBlt-7" value="ID: serial" style="text;strokeColor=none;fillColor=none;align=left;verticalAlign=middle;spacingLeft=4;spacingRight=4;overflow=hidden;points=[[0,0.5],[1,0.5]];portConstraint=eastwest;rotatable=0;whiteSpace=wrap;html=1;" vertex="1" parent="8Ad6xbHqiz1V-JdrsBlt-6">
          <mxGeometry y="30" width="140" height="30" as="geometry" />
        </mxCell>
        <mxCell id="8Ad6xbHqiz1V-JdrsBlt-8" value="&lt;div&gt;UserID: integer&lt;br&gt;&lt;/div&gt;" style="text;strokeColor=none;fillColor=none;align=left;verticalAlign=middle;spacingLeft=4;spacingRight=4;overflow=hidden;points=[[0,0.5],[1,0.5]];portConstraint=eastwest;rotatable=0;whiteSpace=wrap;html=1;" vertex="1" parent="8Ad6xbHqiz1V-JdrsBlt-6">
          <mxGeometry y="60" width="140" height="30" as="geometry" />
        </mxCell>
        <mxCell id="8Ad6xbHqiz1V-JdrsBlt-9" value="StoryContent: bytea" style="text;strokeColor=none;fillColor=none;align=left;verticalAlign=middle;spacingLeft=4;spacingRight=4;overflow=hidden;points=[[0,0.5],[1,0.5]];portConstraint=eastwest;rotatable=0;whiteSpace=wrap;html=1;" vertex="1" parent="8Ad6xbHqiz1V-JdrsBlt-6">
          <mxGeometry y="90" width="140" height="30" as="geometry" />
        </mxCell>
        <mxCell id="8Ad6xbHqiz1V-JdrsBlt-141" value="CFOnly: bool" style="text;strokeColor=none;fillColor=none;align=left;verticalAlign=middle;spacingLeft=4;spacingRight=4;overflow=hidden;points=[[0,0.5],[1,0.5]];portConstraint=eastwest;rotatable=0;whiteSpace=wrap;html=1;" vertex="1" parent="8Ad6xbHqiz1V-JdrsBlt-6">
          <mxGeometry y="120" width="140" height="30" as="geometry" />
        </mxCell>
        <mxCell id="8Ad6xbHqiz1V-JdrsBlt-10" value="Reels" style="swimlane;fontStyle=0;childLayout=stackLayout;horizontal=1;startSize=30;horizontalStack=0;resizeParent=1;resizeParentMax=0;resizeLast=0;collapsible=1;marginBottom=0;whiteSpace=wrap;html=1;" vertex="1" parent="1">
          <mxGeometry x="460" y="410" width="170" height="150" as="geometry" />
        </mxCell>
        <mxCell id="8Ad6xbHqiz1V-JdrsBlt-12" value="ID: serial" style="text;strokeColor=none;fillColor=none;align=left;verticalAlign=middle;spacingLeft=4;spacingRight=4;overflow=hidden;points=[[0,0.5],[1,0.5]];portConstraint=eastwest;rotatable=0;whiteSpace=wrap;html=1;" vertex="1" parent="8Ad6xbHqiz1V-JdrsBlt-10">
          <mxGeometry y="30" width="170" height="30" as="geometry" />
        </mxCell>
        <mxCell id="8Ad6xbHqiz1V-JdrsBlt-11" value="UserID: integer" style="text;strokeColor=none;fillColor=none;align=left;verticalAlign=middle;spacingLeft=4;spacingRight=4;overflow=hidden;points=[[0,0.5],[1,0.5]];portConstraint=eastwest;rotatable=0;whiteSpace=wrap;html=1;" vertex="1" parent="8Ad6xbHqiz1V-JdrsBlt-10">
          <mxGeometry y="60" width="170" height="30" as="geometry" />
        </mxCell>
        <mxCell id="8Ad6xbHqiz1V-JdrsBlt-13" value="ReelContent: bytea" style="text;strokeColor=none;fillColor=none;align=left;verticalAlign=middle;spacingLeft=4;spacingRight=4;overflow=hidden;points=[[0,0.5],[1,0.5]];portConstraint=eastwest;rotatable=0;whiteSpace=wrap;html=1;" vertex="1" parent="8Ad6xbHqiz1V-JdrsBlt-10">
          <mxGeometry y="90" width="170" height="30" as="geometry" />
        </mxCell>
        <mxCell id="8Ad6xbHqiz1V-JdrsBlt-107" value="ReelDescription: varchar(500)" style="text;strokeColor=none;fillColor=none;align=left;verticalAlign=middle;spacingLeft=4;spacingRight=4;overflow=hidden;points=[[0,0.5],[1,0.5]];portConstraint=eastwest;rotatable=0;whiteSpace=wrap;html=1;" vertex="1" parent="8Ad6xbHqiz1V-JdrsBlt-10">
          <mxGeometry y="120" width="170" height="30" as="geometry" />
        </mxCell>
        <mxCell id="8Ad6xbHqiz1V-JdrsBlt-14" value="Post" style="swimlane;fontStyle=0;childLayout=stackLayout;horizontal=1;startSize=30;horizontalStack=0;resizeParent=1;resizeParentMax=0;resizeLast=0;collapsible=1;marginBottom=0;whiteSpace=wrap;html=1;" vertex="1" parent="1">
          <mxGeometry x="460" y="20" width="170" height="150" as="geometry" />
        </mxCell>
        <mxCell id="8Ad6xbHqiz1V-JdrsBlt-15" value="ID: serial" style="text;strokeColor=none;fillColor=none;align=left;verticalAlign=middle;spacingLeft=4;spacingRight=4;overflow=hidden;points=[[0,0.5],[1,0.5]];portConstraint=eastwest;rotatable=0;whiteSpace=wrap;html=1;" vertex="1" parent="8Ad6xbHqiz1V-JdrsBlt-14">
          <mxGeometry y="30" width="170" height="30" as="geometry" />
        </mxCell>
        <mxCell id="8Ad6xbHqiz1V-JdrsBlt-16" value="UserID: integer" style="text;strokeColor=none;fillColor=none;align=left;verticalAlign=middle;spacingLeft=4;spacingRight=4;overflow=hidden;points=[[0,0.5],[1,0.5]];portConstraint=eastwest;rotatable=0;whiteSpace=wrap;html=1;" vertex="1" parent="8Ad6xbHqiz1V-JdrsBlt-14">
          <mxGeometry y="60" width="170" height="30" as="geometry" />
        </mxCell>
        <mxCell id="8Ad6xbHqiz1V-JdrsBlt-17" value="PostContent: bytea" style="text;strokeColor=none;fillColor=none;align=left;verticalAlign=middle;spacingLeft=4;spacingRight=4;overflow=hidden;points=[[0,0.5],[1,0.5]];portConstraint=eastwest;rotatable=0;whiteSpace=wrap;html=1;" vertex="1" parent="8Ad6xbHqiz1V-JdrsBlt-14">
          <mxGeometry y="90" width="170" height="30" as="geometry" />
        </mxCell>
        <mxCell id="8Ad6xbHqiz1V-JdrsBlt-108" value="PostDescription: varchar(500)" style="text;strokeColor=none;fillColor=none;align=left;verticalAlign=middle;spacingLeft=4;spacingRight=4;overflow=hidden;points=[[0,0.5],[1,0.5]];portConstraint=eastwest;rotatable=0;whiteSpace=wrap;html=1;" vertex="1" parent="8Ad6xbHqiz1V-JdrsBlt-14">
          <mxGeometry y="120" width="170" height="30" as="geometry" />
        </mxCell>
        <mxCell id="8Ad6xbHqiz1V-JdrsBlt-18" style="edgeStyle=orthogonalEdgeStyle;rounded=0;orthogonalLoop=1;jettySize=auto;html=1;" edge="1" parent="1" source="8Ad6xbHqiz1V-JdrsBlt-3" target="8Ad6xbHqiz1V-JdrsBlt-16">
          <mxGeometry relative="1" as="geometry" />
        </mxCell>
        <mxCell id="8Ad6xbHqiz1V-JdrsBlt-19" style="edgeStyle=orthogonalEdgeStyle;rounded=0;orthogonalLoop=1;jettySize=auto;html=1;" edge="1" parent="1" source="8Ad6xbHqiz1V-JdrsBlt-3" target="8Ad6xbHqiz1V-JdrsBlt-11">
          <mxGeometry relative="1" as="geometry" />
        </mxCell>
        <mxCell id="8Ad6xbHqiz1V-JdrsBlt-20" style="edgeStyle=orthogonalEdgeStyle;rounded=0;orthogonalLoop=1;jettySize=auto;html=1;" edge="1" parent="1" source="8Ad6xbHqiz1V-JdrsBlt-3" target="8Ad6xbHqiz1V-JdrsBlt-8">
          <mxGeometry relative="1" as="geometry" />
        </mxCell>
        <mxCell id="8Ad6xbHqiz1V-JdrsBlt-25" value="Likes_post" style="swimlane;fontStyle=0;childLayout=stackLayout;horizontal=1;startSize=30;horizontalStack=0;resizeParent=1;resizeParentMax=0;resizeLast=0;collapsible=1;marginBottom=0;whiteSpace=wrap;html=1;" vertex="1" parent="1">
          <mxGeometry x="650" y="40" width="140" height="120" as="geometry" />
        </mxCell>
        <mxCell id="8Ad6xbHqiz1V-JdrsBlt-26" value="ID: serial" style="text;strokeColor=none;fillColor=none;align=left;verticalAlign=middle;spacingLeft=4;spacingRight=4;overflow=hidden;points=[[0,0.5],[1,0.5]];portConstraint=eastwest;rotatable=0;whiteSpace=wrap;html=1;" vertex="1" parent="8Ad6xbHqiz1V-JdrsBlt-25">
          <mxGeometry y="30" width="140" height="30" as="geometry" />
        </mxCell>
        <mxCell id="8Ad6xbHqiz1V-JdrsBlt-27" value="PostID: integer" style="text;strokeColor=none;fillColor=none;align=left;verticalAlign=middle;spacingLeft=4;spacingRight=4;overflow=hidden;points=[[0,0.5],[1,0.5]];portConstraint=eastwest;rotatable=0;whiteSpace=wrap;html=1;" vertex="1" parent="8Ad6xbHqiz1V-JdrsBlt-25">
          <mxGeometry y="60" width="140" height="30" as="geometry" />
        </mxCell>
        <mxCell id="8Ad6xbHqiz1V-JdrsBlt-28" value="UserID: integer" style="text;strokeColor=none;fillColor=none;align=left;verticalAlign=middle;spacingLeft=4;spacingRight=4;overflow=hidden;points=[[0,0.5],[1,0.5]];portConstraint=eastwest;rotatable=0;whiteSpace=wrap;html=1;" vertex="1" parent="8Ad6xbHqiz1V-JdrsBlt-25">
          <mxGeometry y="90" width="140" height="30" as="geometry" />
        </mxCell>
        <mxCell id="8Ad6xbHqiz1V-JdrsBlt-29" style="edgeStyle=orthogonalEdgeStyle;rounded=0;orthogonalLoop=1;jettySize=auto;html=1;" edge="1" parent="1" source="8Ad6xbHqiz1V-JdrsBlt-15" target="8Ad6xbHqiz1V-JdrsBlt-27">
          <mxGeometry relative="1" as="geometry">
            <Array as="points">
              <mxPoint x="640" y="65" />
              <mxPoint x="640" y="115" />
            </Array>
          </mxGeometry>
        </mxCell>
        <mxCell id="8Ad6xbHqiz1V-JdrsBlt-30" style="edgeStyle=orthogonalEdgeStyle;rounded=0;orthogonalLoop=1;jettySize=auto;html=1;" edge="1" parent="1" source="8Ad6xbHqiz1V-JdrsBlt-3" target="8Ad6xbHqiz1V-JdrsBlt-28">
          <mxGeometry relative="1" as="geometry">
            <Array as="points">
              <mxPoint x="440" y="85" />
              <mxPoint x="440" y="180" />
              <mxPoint x="730" y="180" />
            </Array>
          </mxGeometry>
        </mxCell>
        <mxCell id="8Ad6xbHqiz1V-JdrsBlt-31" value="Likes_Reel" style="swimlane;fontStyle=0;childLayout=stackLayout;horizontal=1;startSize=30;horizontalStack=0;resizeParent=1;resizeParentMax=0;resizeLast=0;collapsible=1;marginBottom=0;whiteSpace=wrap;html=1;" vertex="1" parent="1">
          <mxGeometry x="660" y="440" width="140" height="120" as="geometry" />
        </mxCell>
        <mxCell id="8Ad6xbHqiz1V-JdrsBlt-32" value="ID: serial" style="text;strokeColor=none;fillColor=none;align=left;verticalAlign=middle;spacingLeft=4;spacingRight=4;overflow=hidden;points=[[0,0.5],[1,0.5]];portConstraint=eastwest;rotatable=0;whiteSpace=wrap;html=1;" vertex="1" parent="8Ad6xbHqiz1V-JdrsBlt-31">
          <mxGeometry y="30" width="140" height="30" as="geometry" />
        </mxCell>
        <mxCell id="8Ad6xbHqiz1V-JdrsBlt-33" value="ReelID: integer" style="text;strokeColor=none;fillColor=none;align=left;verticalAlign=middle;spacingLeft=4;spacingRight=4;overflow=hidden;points=[[0,0.5],[1,0.5]];portConstraint=eastwest;rotatable=0;whiteSpace=wrap;html=1;" vertex="1" parent="8Ad6xbHqiz1V-JdrsBlt-31">
          <mxGeometry y="60" width="140" height="30" as="geometry" />
        </mxCell>
        <mxCell id="8Ad6xbHqiz1V-JdrsBlt-34" value="UserID: integer" style="text;strokeColor=none;fillColor=none;align=left;verticalAlign=middle;spacingLeft=4;spacingRight=4;overflow=hidden;points=[[0,0.5],[1,0.5]];portConstraint=eastwest;rotatable=0;whiteSpace=wrap;html=1;" vertex="1" parent="8Ad6xbHqiz1V-JdrsBlt-31">
          <mxGeometry y="90" width="140" height="30" as="geometry" />
        </mxCell>
        <mxCell id="8Ad6xbHqiz1V-JdrsBlt-35" value="Likes_Story" style="swimlane;fontStyle=0;childLayout=stackLayout;horizontal=1;startSize=30;horizontalStack=0;resizeParent=1;resizeParentMax=0;resizeLast=0;collapsible=1;marginBottom=0;whiteSpace=wrap;html=1;" vertex="1" parent="1">
          <mxGeometry x="660" y="600" width="140" height="120" as="geometry" />
        </mxCell>
        <mxCell id="8Ad6xbHqiz1V-JdrsBlt-36" value="ID: serial" style="text;strokeColor=none;fillColor=none;align=left;verticalAlign=middle;spacingLeft=4;spacingRight=4;overflow=hidden;points=[[0,0.5],[1,0.5]];portConstraint=eastwest;rotatable=0;whiteSpace=wrap;html=1;" vertex="1" parent="8Ad6xbHqiz1V-JdrsBlt-35">
          <mxGeometry y="30" width="140" height="30" as="geometry" />
        </mxCell>
        <mxCell id="8Ad6xbHqiz1V-JdrsBlt-37" value="Story_ID: integer" style="text;strokeColor=none;fillColor=none;align=left;verticalAlign=middle;spacingLeft=4;spacingRight=4;overflow=hidden;points=[[0,0.5],[1,0.5]];portConstraint=eastwest;rotatable=0;whiteSpace=wrap;html=1;" vertex="1" parent="8Ad6xbHqiz1V-JdrsBlt-35">
          <mxGeometry y="60" width="140" height="30" as="geometry" />
        </mxCell>
        <mxCell id="8Ad6xbHqiz1V-JdrsBlt-38" value="UserID: integer" style="text;strokeColor=none;fillColor=none;align=left;verticalAlign=middle;spacingLeft=4;spacingRight=4;overflow=hidden;points=[[0,0.5],[1,0.5]];portConstraint=eastwest;rotatable=0;whiteSpace=wrap;html=1;" vertex="1" parent="8Ad6xbHqiz1V-JdrsBlt-35">
          <mxGeometry y="90" width="140" height="30" as="geometry" />
        </mxCell>
        <mxCell id="8Ad6xbHqiz1V-JdrsBlt-40" style="edgeStyle=orthogonalEdgeStyle;rounded=0;orthogonalLoop=1;jettySize=auto;html=1;" edge="1" parent="1" source="8Ad6xbHqiz1V-JdrsBlt-7" target="8Ad6xbHqiz1V-JdrsBlt-37">
          <mxGeometry relative="1" as="geometry" />
        </mxCell>
        <mxCell id="8Ad6xbHqiz1V-JdrsBlt-41" style="edgeStyle=orthogonalEdgeStyle;rounded=0;orthogonalLoop=1;jettySize=auto;html=1;exitX=1;exitY=0.5;exitDx=0;exitDy=0;" edge="1" parent="1" source="8Ad6xbHqiz1V-JdrsBlt-3" target="8Ad6xbHqiz1V-JdrsBlt-34">
          <mxGeometry relative="1" as="geometry">
            <mxPoint x="420" y="145" as="sourcePoint" />
            <Array as="points">
              <mxPoint x="440" y="85" />
              <mxPoint x="440" y="580" />
              <mxPoint x="730" y="580" />
            </Array>
          </mxGeometry>
        </mxCell>
        <mxCell id="8Ad6xbHqiz1V-JdrsBlt-42" style="edgeStyle=orthogonalEdgeStyle;rounded=0;orthogonalLoop=1;jettySize=auto;html=1;" edge="1" parent="1" source="8Ad6xbHqiz1V-JdrsBlt-3" target="8Ad6xbHqiz1V-JdrsBlt-38">
          <mxGeometry relative="1" as="geometry">
            <Array as="points">
              <mxPoint x="440" y="85" />
              <mxPoint x="440" y="770" />
              <mxPoint x="730" y="770" />
            </Array>
          </mxGeometry>
        </mxCell>
        <mxCell id="8Ad6xbHqiz1V-JdrsBlt-43" value="CloseFriends" style="swimlane;fontStyle=0;childLayout=stackLayout;horizontal=1;startSize=30;horizontalStack=0;resizeParent=1;resizeParentMax=0;resizeLast=0;collapsible=1;marginBottom=0;whiteSpace=wrap;html=1;" vertex="1" parent="1">
          <mxGeometry x="60" y="50" width="140" height="120" as="geometry" />
        </mxCell>
        <mxCell id="8Ad6xbHqiz1V-JdrsBlt-44" value="ID: serial" style="text;strokeColor=none;fillColor=none;align=left;verticalAlign=middle;spacingLeft=4;spacingRight=4;overflow=hidden;points=[[0,0.5],[1,0.5]];portConstraint=eastwest;rotatable=0;whiteSpace=wrap;html=1;" vertex="1" parent="8Ad6xbHqiz1V-JdrsBlt-43">
          <mxGeometry y="30" width="140" height="30" as="geometry" />
        </mxCell>
        <mxCell id="8Ad6xbHqiz1V-JdrsBlt-45" value="OwnerID: integer" style="text;strokeColor=none;fillColor=none;align=left;verticalAlign=middle;spacingLeft=4;spacingRight=4;overflow=hidden;points=[[0,0.5],[1,0.5]];portConstraint=eastwest;rotatable=0;whiteSpace=wrap;html=1;" vertex="1" parent="8Ad6xbHqiz1V-JdrsBlt-43">
          <mxGeometry y="60" width="140" height="30" as="geometry" />
        </mxCell>
        <mxCell id="8Ad6xbHqiz1V-JdrsBlt-46" value="FriendID: integer" style="text;strokeColor=none;fillColor=none;align=left;verticalAlign=middle;spacingLeft=4;spacingRight=4;overflow=hidden;points=[[0,0.5],[1,0.5]];portConstraint=eastwest;rotatable=0;whiteSpace=wrap;html=1;" vertex="1" parent="8Ad6xbHqiz1V-JdrsBlt-43">
          <mxGeometry y="90" width="140" height="30" as="geometry" />
        </mxCell>
        <mxCell id="8Ad6xbHqiz1V-JdrsBlt-47" style="edgeStyle=orthogonalEdgeStyle;rounded=0;orthogonalLoop=1;jettySize=auto;html=1;" edge="1" parent="1" source="8Ad6xbHqiz1V-JdrsBlt-3" target="8Ad6xbHqiz1V-JdrsBlt-45">
          <mxGeometry relative="1" as="geometry">
            <Array as="points">
              <mxPoint x="240" y="85" />
              <mxPoint x="240" y="125" />
            </Array>
          </mxGeometry>
        </mxCell>
        <mxCell id="8Ad6xbHqiz1V-JdrsBlt-48" style="edgeStyle=orthogonalEdgeStyle;rounded=0;orthogonalLoop=1;jettySize=auto;html=1;" edge="1" parent="1" source="8Ad6xbHqiz1V-JdrsBlt-3" target="8Ad6xbHqiz1V-JdrsBlt-46">
          <mxGeometry relative="1" as="geometry">
            <Array as="points">
              <mxPoint x="240" y="85" />
              <mxPoint x="240" y="200" />
              <mxPoint x="130" y="200" />
            </Array>
          </mxGeometry>
        </mxCell>
        <mxCell id="8Ad6xbHqiz1V-JdrsBlt-49" value="Chat" style="swimlane;fontStyle=0;childLayout=stackLayout;horizontal=1;startSize=30;horizontalStack=0;resizeParent=1;resizeParentMax=0;resizeLast=0;collapsible=1;marginBottom=0;whiteSpace=wrap;html=1;" vertex="1" parent="1">
          <mxGeometry x="60" y="240" width="140" height="120" as="geometry" />
        </mxCell>
        <mxCell id="8Ad6xbHqiz1V-JdrsBlt-50" value="ID: serial" style="text;strokeColor=none;fillColor=none;align=left;verticalAlign=middle;spacingLeft=4;spacingRight=4;overflow=hidden;points=[[0,0.5],[1,0.5]];portConstraint=eastwest;rotatable=0;whiteSpace=wrap;html=1;" vertex="1" parent="8Ad6xbHqiz1V-JdrsBlt-49">
          <mxGeometry y="30" width="140" height="30" as="geometry" />
        </mxCell>
        <mxCell id="8Ad6xbHqiz1V-JdrsBlt-51" value="OwnerID: integer" style="text;strokeColor=none;fillColor=none;align=left;verticalAlign=middle;spacingLeft=4;spacingRight=4;overflow=hidden;points=[[0,0.5],[1,0.5]];portConstraint=eastwest;rotatable=0;whiteSpace=wrap;html=1;" vertex="1" parent="8Ad6xbHqiz1V-JdrsBlt-49">
          <mxGeometry y="60" width="140" height="30" as="geometry" />
        </mxCell>
        <mxCell id="8Ad6xbHqiz1V-JdrsBlt-52" value="FriendID: integer" style="text;strokeColor=none;fillColor=none;align=left;verticalAlign=middle;spacingLeft=4;spacingRight=4;overflow=hidden;points=[[0,0.5],[1,0.5]];portConstraint=eastwest;rotatable=0;whiteSpace=wrap;html=1;" vertex="1" parent="8Ad6xbHqiz1V-JdrsBlt-49">
          <mxGeometry y="90" width="140" height="30" as="geometry" />
        </mxCell>
        <mxCell id="8Ad6xbHqiz1V-JdrsBlt-53" style="edgeStyle=orthogonalEdgeStyle;rounded=0;orthogonalLoop=1;jettySize=auto;html=1;" edge="1" parent="1" source="8Ad6xbHqiz1V-JdrsBlt-3" target="8Ad6xbHqiz1V-JdrsBlt-51">
          <mxGeometry relative="1" as="geometry">
            <Array as="points">
              <mxPoint x="240" y="85" />
              <mxPoint x="240" y="315" />
            </Array>
          </mxGeometry>
        </mxCell>
        <mxCell id="8Ad6xbHqiz1V-JdrsBlt-54" style="edgeStyle=orthogonalEdgeStyle;rounded=0;orthogonalLoop=1;jettySize=auto;html=1;" edge="1" parent="1" source="8Ad6xbHqiz1V-JdrsBlt-3" target="8Ad6xbHqiz1V-JdrsBlt-52">
          <mxGeometry relative="1" as="geometry">
            <Array as="points">
              <mxPoint x="240" y="85" />
              <mxPoint x="240" y="345" />
            </Array>
          </mxGeometry>
        </mxCell>
        <mxCell id="8Ad6xbHqiz1V-JdrsBlt-55" value="Chat_Messages" style="swimlane;fontStyle=0;childLayout=stackLayout;horizontal=1;startSize=30;horizontalStack=0;resizeParent=1;resizeParentMax=0;resizeLast=0;collapsible=1;marginBottom=0;whiteSpace=wrap;html=1;" vertex="1" parent="1">
          <mxGeometry x="40" y="400" width="170" height="210" as="geometry" />
        </mxCell>
        <mxCell id="8Ad6xbHqiz1V-JdrsBlt-56" value="ID: serial" style="text;strokeColor=none;fillColor=none;align=left;verticalAlign=middle;spacingLeft=4;spacingRight=4;overflow=hidden;points=[[0,0.5],[1,0.5]];portConstraint=eastwest;rotatable=0;whiteSpace=wrap;html=1;" vertex="1" parent="8Ad6xbHqiz1V-JdrsBlt-55">
          <mxGeometry y="30" width="170" height="30" as="geometry" />
        </mxCell>
        <mxCell id="8Ad6xbHqiz1V-JdrsBlt-57" value="ChatID: integer" style="text;strokeColor=none;fillColor=none;align=left;verticalAlign=middle;spacingLeft=4;spacingRight=4;overflow=hidden;points=[[0,0.5],[1,0.5]];portConstraint=eastwest;rotatable=0;whiteSpace=wrap;html=1;" vertex="1" parent="8Ad6xbHqiz1V-JdrsBlt-55">
          <mxGeometry y="60" width="170" height="30" as="geometry" />
        </mxCell>
        <mxCell id="8Ad6xbHqiz1V-JdrsBlt-59" value="MessageType: integer" style="text;strokeColor=none;fillColor=none;align=left;verticalAlign=middle;spacingLeft=4;spacingRight=4;overflow=hidden;points=[[0,0.5],[1,0.5]];portConstraint=eastwest;rotatable=0;whiteSpace=wrap;html=1;" vertex="1" parent="8Ad6xbHqiz1V-JdrsBlt-55">
          <mxGeometry y="90" width="170" height="30" as="geometry" />
        </mxCell>
        <mxCell id="8Ad6xbHqiz1V-JdrsBlt-60" value="DateSent: timestamp" style="text;strokeColor=none;fillColor=none;align=left;verticalAlign=middle;spacingLeft=4;spacingRight=4;overflow=hidden;points=[[0,0.5],[1,0.5]];portConstraint=eastwest;rotatable=0;whiteSpace=wrap;html=1;" vertex="1" parent="8Ad6xbHqiz1V-JdrsBlt-55">
          <mxGeometry y="120" width="170" height="30" as="geometry" />
        </mxCell>
        <mxCell id="8Ad6xbHqiz1V-JdrsBlt-61" value="MessageText: varchar(1000)" style="text;strokeColor=none;fillColor=none;align=left;verticalAlign=middle;spacingLeft=4;spacingRight=4;overflow=hidden;points=[[0,0.5],[1,0.5]];portConstraint=eastwest;rotatable=0;whiteSpace=wrap;html=1;" vertex="1" parent="8Ad6xbHqiz1V-JdrsBlt-55">
          <mxGeometry y="150" width="170" height="30" as="geometry" />
        </mxCell>
        <mxCell id="8Ad6xbHqiz1V-JdrsBlt-58" value="MessageOther: bytea" style="text;strokeColor=none;fillColor=none;align=left;verticalAlign=middle;spacingLeft=4;spacingRight=4;overflow=hidden;points=[[0,0.5],[1,0.5]];portConstraint=eastwest;rotatable=0;whiteSpace=wrap;html=1;" vertex="1" parent="8Ad6xbHqiz1V-JdrsBlt-55">
          <mxGeometry y="180" width="170" height="30" as="geometry" />
        </mxCell>
        <mxCell id="8Ad6xbHqiz1V-JdrsBlt-64" style="edgeStyle=orthogonalEdgeStyle;rounded=0;orthogonalLoop=1;jettySize=auto;html=1;entryX=0;entryY=0.5;entryDx=0;entryDy=0;" edge="1" parent="1" source="8Ad6xbHqiz1V-JdrsBlt-50" target="8Ad6xbHqiz1V-JdrsBlt-57">
          <mxGeometry relative="1" as="geometry">
            <Array as="points">
              <mxPoint x="220" y="285" />
              <mxPoint x="220" y="380" />
              <mxPoint x="10" y="380" />
              <mxPoint x="10" y="475" />
            </Array>
          </mxGeometry>
        </mxCell>
        <mxCell id="8Ad6xbHqiz1V-JdrsBlt-65" value="FriendRequest" style="swimlane;fontStyle=0;childLayout=stackLayout;horizontal=1;startSize=30;horizontalStack=0;resizeParent=1;resizeParentMax=0;resizeLast=0;collapsible=1;marginBottom=0;whiteSpace=wrap;html=1;" vertex="1" parent="1">
          <mxGeometry x="260" y="450" width="160" height="210" as="geometry" />
        </mxCell>
        <mxCell id="8Ad6xbHqiz1V-JdrsBlt-66" value="ID: serial" style="text;strokeColor=none;fillColor=none;align=left;verticalAlign=middle;spacingLeft=4;spacingRight=4;overflow=hidden;points=[[0,0.5],[1,0.5]];portConstraint=eastwest;rotatable=0;whiteSpace=wrap;html=1;" vertex="1" parent="8Ad6xbHqiz1V-JdrsBlt-65">
          <mxGeometry y="30" width="160" height="30" as="geometry" />
        </mxCell>
        <mxCell id="8Ad6xbHqiz1V-JdrsBlt-67" value="UserFromID: integer" style="text;strokeColor=none;fillColor=none;align=left;verticalAlign=middle;spacingLeft=4;spacingRight=4;overflow=hidden;points=[[0,0.5],[1,0.5]];portConstraint=eastwest;rotatable=0;whiteSpace=wrap;html=1;" vertex="1" parent="8Ad6xbHqiz1V-JdrsBlt-65">
          <mxGeometry y="60" width="160" height="30" as="geometry" />
        </mxCell>
        <mxCell id="8Ad6xbHqiz1V-JdrsBlt-68" value="UserToID: integer" style="text;strokeColor=none;fillColor=none;align=left;verticalAlign=middle;spacingLeft=4;spacingRight=4;overflow=hidden;points=[[0,0.5],[1,0.5]];portConstraint=eastwest;rotatable=0;whiteSpace=wrap;html=1;" vertex="1" parent="8Ad6xbHqiz1V-JdrsBlt-65">
          <mxGeometry y="90" width="160" height="30" as="geometry" />
        </mxCell>
        <mxCell id="8Ad6xbHqiz1V-JdrsBlt-73" value="Status: integer" style="text;strokeColor=none;fillColor=none;align=left;verticalAlign=middle;spacingLeft=4;spacingRight=4;overflow=hidden;points=[[0,0.5],[1,0.5]];portConstraint=eastwest;rotatable=0;whiteSpace=wrap;html=1;" vertex="1" parent="8Ad6xbHqiz1V-JdrsBlt-65">
          <mxGeometry y="120" width="160" height="30" as="geometry" />
        </mxCell>
        <mxCell id="8Ad6xbHqiz1V-JdrsBlt-81" value="DateSent: timestamp" style="text;strokeColor=none;fillColor=none;align=left;verticalAlign=middle;spacingLeft=4;spacingRight=4;overflow=hidden;points=[[0,0.5],[1,0.5]];portConstraint=eastwest;rotatable=0;whiteSpace=wrap;html=1;" vertex="1" parent="8Ad6xbHqiz1V-JdrsBlt-65">
          <mxGeometry y="150" width="160" height="30" as="geometry" />
        </mxCell>
        <mxCell id="8Ad6xbHqiz1V-JdrsBlt-82" value="DateReplied: timestamp" style="text;strokeColor=none;fillColor=none;align=left;verticalAlign=middle;spacingLeft=4;spacingRight=4;overflow=hidden;points=[[0,0.5],[1,0.5]];portConstraint=eastwest;rotatable=0;whiteSpace=wrap;html=1;" vertex="1" parent="8Ad6xbHqiz1V-JdrsBlt-65">
          <mxGeometry y="180" width="160" height="30" as="geometry" />
        </mxCell>
        <mxCell id="8Ad6xbHqiz1V-JdrsBlt-74" style="edgeStyle=orthogonalEdgeStyle;rounded=0;orthogonalLoop=1;jettySize=auto;html=1;entryX=0;entryY=0.5;entryDx=0;entryDy=0;" edge="1" parent="1" source="8Ad6xbHqiz1V-JdrsBlt-3" target="8Ad6xbHqiz1V-JdrsBlt-67">
          <mxGeometry relative="1" as="geometry">
            <Array as="points">
              <mxPoint x="240" y="85" />
              <mxPoint x="240" y="525" />
            </Array>
          </mxGeometry>
        </mxCell>
        <mxCell id="8Ad6xbHqiz1V-JdrsBlt-75" style="edgeStyle=orthogonalEdgeStyle;rounded=0;orthogonalLoop=1;jettySize=auto;html=1;entryX=0;entryY=0.5;entryDx=0;entryDy=0;" edge="1" parent="1" source="8Ad6xbHqiz1V-JdrsBlt-3" target="8Ad6xbHqiz1V-JdrsBlt-68">
          <mxGeometry relative="1" as="geometry">
            <Array as="points">
              <mxPoint x="240" y="85" />
              <mxPoint x="240" y="555" />
            </Array>
          </mxGeometry>
        </mxCell>
        <mxCell id="8Ad6xbHqiz1V-JdrsBlt-76" value="Status" style="swimlane;fontStyle=0;childLayout=stackLayout;horizontal=1;startSize=30;horizontalStack=0;resizeParent=1;resizeParentMax=0;resizeLast=0;collapsible=1;marginBottom=0;whiteSpace=wrap;html=1;" vertex="1" parent="1">
          <mxGeometry x="40" y="630" width="170" height="90" as="geometry" />
        </mxCell>
        <mxCell id="8Ad6xbHqiz1V-JdrsBlt-77" value="ID: serial" style="text;strokeColor=none;fillColor=none;align=left;verticalAlign=middle;spacingLeft=4;spacingRight=4;overflow=hidden;points=[[0,0.5],[1,0.5]];portConstraint=eastwest;rotatable=0;whiteSpace=wrap;html=1;" vertex="1" parent="8Ad6xbHqiz1V-JdrsBlt-76">
          <mxGeometry y="30" width="170" height="30" as="geometry" />
        </mxCell>
        <mxCell id="8Ad6xbHqiz1V-JdrsBlt-78" value="StatusName: varchar(10)" style="text;strokeColor=none;fillColor=none;align=left;verticalAlign=middle;spacingLeft=4;spacingRight=4;overflow=hidden;points=[[0,0.5],[1,0.5]];portConstraint=eastwest;rotatable=0;whiteSpace=wrap;html=1;" vertex="1" parent="8Ad6xbHqiz1V-JdrsBlt-76">
          <mxGeometry y="60" width="170" height="30" as="geometry" />
        </mxCell>
        <mxCell id="8Ad6xbHqiz1V-JdrsBlt-83" style="edgeStyle=orthogonalEdgeStyle;rounded=0;orthogonalLoop=1;jettySize=auto;html=1;entryX=0;entryY=0.5;entryDx=0;entryDy=0;" edge="1" parent="1" source="8Ad6xbHqiz1V-JdrsBlt-77" target="8Ad6xbHqiz1V-JdrsBlt-73">
          <mxGeometry relative="1" as="geometry">
            <Array as="points">
              <mxPoint x="230" y="675" />
              <mxPoint x="230" y="585" />
            </Array>
          </mxGeometry>
        </mxCell>
        <mxCell id="8Ad6xbHqiz1V-JdrsBlt-90" style="edgeStyle=orthogonalEdgeStyle;rounded=0;orthogonalLoop=1;jettySize=auto;html=1;" edge="1" parent="1" source="8Ad6xbHqiz1V-JdrsBlt-12" target="8Ad6xbHqiz1V-JdrsBlt-33">
          <mxGeometry relative="1" as="geometry">
            <Array as="points">
              <mxPoint x="640" y="455" />
              <mxPoint x="640" y="515" />
            </Array>
          </mxGeometry>
        </mxCell>
        <mxCell id="8Ad6xbHqiz1V-JdrsBlt-91" value="Comments_Post" style="swimlane;fontStyle=0;childLayout=stackLayout;horizontal=1;startSize=30;horizontalStack=0;resizeParent=1;resizeParentMax=0;resizeLast=0;collapsible=1;marginBottom=0;whiteSpace=wrap;html=1;" vertex="1" parent="1">
          <mxGeometry x="830" y="40" width="150" height="150" as="geometry" />
        </mxCell>
        <mxCell id="8Ad6xbHqiz1V-JdrsBlt-92" value="ID: serial" style="text;strokeColor=none;fillColor=none;align=left;verticalAlign=middle;spacingLeft=4;spacingRight=4;overflow=hidden;points=[[0,0.5],[1,0.5]];portConstraint=eastwest;rotatable=0;whiteSpace=wrap;html=1;" vertex="1" parent="8Ad6xbHqiz1V-JdrsBlt-91">
          <mxGeometry y="30" width="150" height="30" as="geometry" />
        </mxCell>
        <mxCell id="8Ad6xbHqiz1V-JdrsBlt-93" value="PostID: integer" style="text;strokeColor=none;fillColor=none;align=left;verticalAlign=middle;spacingLeft=4;spacingRight=4;overflow=hidden;points=[[0,0.5],[1,0.5]];portConstraint=eastwest;rotatable=0;whiteSpace=wrap;html=1;" vertex="1" parent="8Ad6xbHqiz1V-JdrsBlt-91">
          <mxGeometry y="60" width="150" height="30" as="geometry" />
        </mxCell>
        <mxCell id="8Ad6xbHqiz1V-JdrsBlt-94" value="UserID: integer" style="text;strokeColor=none;fillColor=none;align=left;verticalAlign=middle;spacingLeft=4;spacingRight=4;overflow=hidden;points=[[0,0.5],[1,0.5]];portConstraint=eastwest;rotatable=0;whiteSpace=wrap;html=1;" vertex="1" parent="8Ad6xbHqiz1V-JdrsBlt-91">
          <mxGeometry y="90" width="150" height="30" as="geometry" />
        </mxCell>
        <mxCell id="8Ad6xbHqiz1V-JdrsBlt-96" value="Comment: varchar(1000)" style="text;strokeColor=none;fillColor=none;align=left;verticalAlign=middle;spacingLeft=4;spacingRight=4;overflow=hidden;points=[[0,0.5],[1,0.5]];portConstraint=eastwest;rotatable=0;whiteSpace=wrap;html=1;" vertex="1" parent="8Ad6xbHqiz1V-JdrsBlt-91">
          <mxGeometry y="120" width="150" height="30" as="geometry" />
        </mxCell>
        <mxCell id="8Ad6xbHqiz1V-JdrsBlt-97" style="edgeStyle=orthogonalEdgeStyle;rounded=0;orthogonalLoop=1;jettySize=auto;html=1;" edge="1" parent="1" source="8Ad6xbHqiz1V-JdrsBlt-15" target="8Ad6xbHqiz1V-JdrsBlt-93">
          <mxGeometry relative="1" as="geometry">
            <Array as="points">
              <mxPoint x="640" y="65" />
              <mxPoint x="640" y="20" />
              <mxPoint x="810" y="20" />
              <mxPoint x="810" y="115" />
            </Array>
          </mxGeometry>
        </mxCell>
        <mxCell id="8Ad6xbHqiz1V-JdrsBlt-98" style="edgeStyle=orthogonalEdgeStyle;rounded=0;orthogonalLoop=1;jettySize=auto;html=1;" edge="1" parent="1" source="8Ad6xbHqiz1V-JdrsBlt-3" target="8Ad6xbHqiz1V-JdrsBlt-94">
          <mxGeometry relative="1" as="geometry">
            <Array as="points">
              <mxPoint x="440" y="85" />
              <mxPoint x="440" y="180" />
              <mxPoint x="810" y="180" />
              <mxPoint x="810" y="145" />
            </Array>
          </mxGeometry>
        </mxCell>
        <mxCell id="8Ad6xbHqiz1V-JdrsBlt-100" value="Comments_Reel" style="swimlane;fontStyle=0;childLayout=stackLayout;horizontal=1;startSize=30;horizontalStack=0;resizeParent=1;resizeParentMax=0;resizeLast=0;collapsible=1;marginBottom=0;whiteSpace=wrap;html=1;" vertex="1" parent="1">
          <mxGeometry x="840" y="440" width="160" height="150" as="geometry" />
        </mxCell>
        <mxCell id="8Ad6xbHqiz1V-JdrsBlt-101" value="ID: serial" style="text;strokeColor=none;fillColor=none;align=left;verticalAlign=middle;spacingLeft=4;spacingRight=4;overflow=hidden;points=[[0,0.5],[1,0.5]];portConstraint=eastwest;rotatable=0;whiteSpace=wrap;html=1;" vertex="1" parent="8Ad6xbHqiz1V-JdrsBlt-100">
          <mxGeometry y="30" width="160" height="30" as="geometry" />
        </mxCell>
        <mxCell id="8Ad6xbHqiz1V-JdrsBlt-102" value="ReelID: integer" style="text;strokeColor=none;fillColor=none;align=left;verticalAlign=middle;spacingLeft=4;spacingRight=4;overflow=hidden;points=[[0,0.5],[1,0.5]];portConstraint=eastwest;rotatable=0;whiteSpace=wrap;html=1;" vertex="1" parent="8Ad6xbHqiz1V-JdrsBlt-100">
          <mxGeometry y="60" width="160" height="30" as="geometry" />
        </mxCell>
        <mxCell id="8Ad6xbHqiz1V-JdrsBlt-103" value="UserID: integer" style="text;strokeColor=none;fillColor=none;align=left;verticalAlign=middle;spacingLeft=4;spacingRight=4;overflow=hidden;points=[[0,0.5],[1,0.5]];portConstraint=eastwest;rotatable=0;whiteSpace=wrap;html=1;" vertex="1" parent="8Ad6xbHqiz1V-JdrsBlt-100">
          <mxGeometry y="90" width="160" height="30" as="geometry" />
        </mxCell>
        <mxCell id="8Ad6xbHqiz1V-JdrsBlt-104" value="Comment: varchar(1000)" style="text;strokeColor=none;fillColor=none;align=left;verticalAlign=middle;spacingLeft=4;spacingRight=4;overflow=hidden;points=[[0,0.5],[1,0.5]];portConstraint=eastwest;rotatable=0;whiteSpace=wrap;html=1;" vertex="1" parent="8Ad6xbHqiz1V-JdrsBlt-100">
          <mxGeometry y="120" width="160" height="30" as="geometry" />
        </mxCell>
        <mxCell id="8Ad6xbHqiz1V-JdrsBlt-105" style="edgeStyle=orthogonalEdgeStyle;rounded=0;orthogonalLoop=1;jettySize=auto;html=1;" edge="1" parent="1" source="8Ad6xbHqiz1V-JdrsBlt-12" target="8Ad6xbHqiz1V-JdrsBlt-102">
          <mxGeometry relative="1" as="geometry">
            <Array as="points">
              <mxPoint x="640" y="455" />
              <mxPoint x="640" y="420" />
              <mxPoint x="820" y="420" />
              <mxPoint x="820" y="515" />
            </Array>
          </mxGeometry>
        </mxCell>
        <mxCell id="8Ad6xbHqiz1V-JdrsBlt-106" style="edgeStyle=orthogonalEdgeStyle;rounded=0;orthogonalLoop=1;jettySize=auto;html=1;" edge="1" parent="1" source="8Ad6xbHqiz1V-JdrsBlt-3" target="8Ad6xbHqiz1V-JdrsBlt-103">
          <mxGeometry relative="1" as="geometry">
            <Array as="points">
              <mxPoint x="440" y="85" />
              <mxPoint x="440" y="580" />
              <mxPoint x="820" y="580" />
              <mxPoint x="820" y="545" />
            </Array>
          </mxGeometry>
        </mxCell>
        <mxCell id="8Ad6xbHqiz1V-JdrsBlt-109" value="Friends" style="swimlane;fontStyle=0;childLayout=stackLayout;horizontal=1;startSize=30;horizontalStack=0;resizeParent=1;resizeParentMax=0;resizeLast=0;collapsible=1;marginBottom=0;whiteSpace=wrap;html=1;" vertex="1" parent="1">
          <mxGeometry x="260" y="690" width="160" height="180" as="geometry" />
        </mxCell>
        <mxCell id="8Ad6xbHqiz1V-JdrsBlt-110" value="ID: serial" style="text;strokeColor=none;fillColor=none;align=left;verticalAlign=middle;spacingLeft=4;spacingRight=4;overflow=hidden;points=[[0,0.5],[1,0.5]];portConstraint=eastwest;rotatable=0;whiteSpace=wrap;html=1;" vertex="1" parent="8Ad6xbHqiz1V-JdrsBlt-109">
          <mxGeometry y="30" width="160" height="30" as="geometry" />
        </mxCell>
        <mxCell id="8Ad6xbHqiz1V-JdrsBlt-111" value="OwnerID: integer" style="text;strokeColor=none;fillColor=none;align=left;verticalAlign=middle;spacingLeft=4;spacingRight=4;overflow=hidden;points=[[0,0.5],[1,0.5]];portConstraint=eastwest;rotatable=0;whiteSpace=wrap;html=1;" vertex="1" parent="8Ad6xbHqiz1V-JdrsBlt-109">
          <mxGeometry y="60" width="160" height="30" as="geometry" />
        </mxCell>
        <mxCell id="8Ad6xbHqiz1V-JdrsBlt-113" value="FriendID: integer" style="text;strokeColor=none;fillColor=none;align=left;verticalAlign=middle;spacingLeft=4;spacingRight=4;overflow=hidden;points=[[0,0.5],[1,0.5]];portConstraint=eastwest;rotatable=0;whiteSpace=wrap;html=1;" vertex="1" parent="8Ad6xbHqiz1V-JdrsBlt-109">
          <mxGeometry y="90" width="160" height="30" as="geometry" />
        </mxCell>
        <mxCell id="8Ad6xbHqiz1V-JdrsBlt-114" value="DateAdded: timestamp" style="text;strokeColor=none;fillColor=none;align=left;verticalAlign=middle;spacingLeft=4;spacingRight=4;overflow=hidden;points=[[0,0.5],[1,0.5]];portConstraint=eastwest;rotatable=0;whiteSpace=wrap;html=1;" vertex="1" parent="8Ad6xbHqiz1V-JdrsBlt-109">
          <mxGeometry y="120" width="160" height="30" as="geometry" />
        </mxCell>
        <mxCell id="8Ad6xbHqiz1V-JdrsBlt-112" value="DateRemoved: timestamp" style="text;strokeColor=none;fillColor=none;align=left;verticalAlign=middle;spacingLeft=4;spacingRight=4;overflow=hidden;points=[[0,0.5],[1,0.5]];portConstraint=eastwest;rotatable=0;whiteSpace=wrap;html=1;" vertex="1" parent="8Ad6xbHqiz1V-JdrsBlt-109">
          <mxGeometry y="150" width="160" height="30" as="geometry" />
        </mxCell>
        <mxCell id="8Ad6xbHqiz1V-JdrsBlt-115" style="edgeStyle=orthogonalEdgeStyle;rounded=0;orthogonalLoop=1;jettySize=auto;html=1;entryX=0;entryY=0.5;entryDx=0;entryDy=0;" edge="1" parent="1" source="8Ad6xbHqiz1V-JdrsBlt-3" target="8Ad6xbHqiz1V-JdrsBlt-111">
          <mxGeometry relative="1" as="geometry" />
        </mxCell>
        <mxCell id="8Ad6xbHqiz1V-JdrsBlt-116" style="edgeStyle=orthogonalEdgeStyle;rounded=0;orthogonalLoop=1;jettySize=auto;html=1;entryX=0;entryY=0.5;entryDx=0;entryDy=0;" edge="1" parent="1" source="8Ad6xbHqiz1V-JdrsBlt-3" target="8Ad6xbHqiz1V-JdrsBlt-113">
          <mxGeometry relative="1" as="geometry" />
        </mxCell>
        <mxCell id="8Ad6xbHqiz1V-JdrsBlt-117" value="City" style="swimlane;fontStyle=0;childLayout=stackLayout;horizontal=1;startSize=30;horizontalStack=0;resizeParent=1;resizeParentMax=0;resizeLast=0;collapsible=1;marginBottom=0;whiteSpace=wrap;html=1;" vertex="1" parent="1">
          <mxGeometry x="470" y="220" width="140" height="120" as="geometry" />
        </mxCell>
        <mxCell id="8Ad6xbHqiz1V-JdrsBlt-118" value="ID: serial" style="text;strokeColor=none;fillColor=none;align=left;verticalAlign=middle;spacingLeft=4;spacingRight=4;overflow=hidden;points=[[0,0.5],[1,0.5]];portConstraint=eastwest;rotatable=0;whiteSpace=wrap;html=1;" vertex="1" parent="8Ad6xbHqiz1V-JdrsBlt-117">
          <mxGeometry y="30" width="140" height="30" as="geometry" />
        </mxCell>
        <mxCell id="8Ad6xbHqiz1V-JdrsBlt-119" value="StateID: integer" style="text;strokeColor=none;fillColor=none;align=left;verticalAlign=middle;spacingLeft=4;spacingRight=4;overflow=hidden;points=[[0,0.5],[1,0.5]];portConstraint=eastwest;rotatable=0;whiteSpace=wrap;html=1;" vertex="1" parent="8Ad6xbHqiz1V-JdrsBlt-117">
          <mxGeometry y="60" width="140" height="30" as="geometry" />
        </mxCell>
        <mxCell id="8Ad6xbHqiz1V-JdrsBlt-120" value="CityName: varchar(100)" style="text;strokeColor=none;fillColor=none;align=left;verticalAlign=middle;spacingLeft=4;spacingRight=4;overflow=hidden;points=[[0,0.5],[1,0.5]];portConstraint=eastwest;rotatable=0;whiteSpace=wrap;html=1;" vertex="1" parent="8Ad6xbHqiz1V-JdrsBlt-117">
          <mxGeometry y="90" width="140" height="30" as="geometry" />
        </mxCell>
        <mxCell id="8Ad6xbHqiz1V-JdrsBlt-121" value="State" style="swimlane;fontStyle=0;childLayout=stackLayout;horizontal=1;startSize=30;horizontalStack=0;resizeParent=1;resizeParentMax=0;resizeLast=0;collapsible=1;marginBottom=0;whiteSpace=wrap;html=1;" vertex="1" parent="1">
          <mxGeometry x="650" y="220" width="150" height="120" as="geometry" />
        </mxCell>
        <mxCell id="8Ad6xbHqiz1V-JdrsBlt-122" value="ID: serial" style="text;strokeColor=none;fillColor=none;align=left;verticalAlign=middle;spacingLeft=4;spacingRight=4;overflow=hidden;points=[[0,0.5],[1,0.5]];portConstraint=eastwest;rotatable=0;whiteSpace=wrap;html=1;" vertex="1" parent="8Ad6xbHqiz1V-JdrsBlt-121">
          <mxGeometry y="30" width="150" height="30" as="geometry" />
        </mxCell>
        <mxCell id="8Ad6xbHqiz1V-JdrsBlt-123" value="CountryID: integer" style="text;strokeColor=none;fillColor=none;align=left;verticalAlign=middle;spacingLeft=4;spacingRight=4;overflow=hidden;points=[[0,0.5],[1,0.5]];portConstraint=eastwest;rotatable=0;whiteSpace=wrap;html=1;" vertex="1" parent="8Ad6xbHqiz1V-JdrsBlt-121">
          <mxGeometry y="60" width="150" height="30" as="geometry" />
        </mxCell>
        <mxCell id="8Ad6xbHqiz1V-JdrsBlt-124" value="StateName: varchar(100)" style="text;strokeColor=none;fillColor=none;align=left;verticalAlign=middle;spacingLeft=4;spacingRight=4;overflow=hidden;points=[[0,0.5],[1,0.5]];portConstraint=eastwest;rotatable=0;whiteSpace=wrap;html=1;" vertex="1" parent="8Ad6xbHqiz1V-JdrsBlt-121">
          <mxGeometry y="90" width="150" height="30" as="geometry" />
        </mxCell>
        <mxCell id="8Ad6xbHqiz1V-JdrsBlt-125" value="Country" style="swimlane;fontStyle=0;childLayout=stackLayout;horizontal=1;startSize=30;horizontalStack=0;resizeParent=1;resizeParentMax=0;resizeLast=0;collapsible=1;marginBottom=0;whiteSpace=wrap;html=1;" vertex="1" parent="1">
          <mxGeometry x="840" y="220" width="160" height="90" as="geometry" />
        </mxCell>
        <mxCell id="8Ad6xbHqiz1V-JdrsBlt-126" value="ID: serial" style="text;strokeColor=none;fillColor=none;align=left;verticalAlign=middle;spacingLeft=4;spacingRight=4;overflow=hidden;points=[[0,0.5],[1,0.5]];portConstraint=eastwest;rotatable=0;whiteSpace=wrap;html=1;" vertex="1" parent="8Ad6xbHqiz1V-JdrsBlt-125">
          <mxGeometry y="30" width="160" height="30" as="geometry" />
        </mxCell>
        <mxCell id="8Ad6xbHqiz1V-JdrsBlt-128" value="CountryName: varchar(100)" style="text;strokeColor=none;fillColor=none;align=left;verticalAlign=middle;spacingLeft=4;spacingRight=4;overflow=hidden;points=[[0,0.5],[1,0.5]];portConstraint=eastwest;rotatable=0;whiteSpace=wrap;html=1;" vertex="1" parent="8Ad6xbHqiz1V-JdrsBlt-125">
          <mxGeometry y="60" width="160" height="30" as="geometry" />
        </mxCell>
        <mxCell id="8Ad6xbHqiz1V-JdrsBlt-131" style="edgeStyle=orthogonalEdgeStyle;rounded=0;orthogonalLoop=1;jettySize=auto;html=1;" edge="1" parent="1" source="8Ad6xbHqiz1V-JdrsBlt-126" target="8Ad6xbHqiz1V-JdrsBlt-123">
          <mxGeometry relative="1" as="geometry">
            <Array as="points">
              <mxPoint x="820" y="265" />
              <mxPoint x="820" y="295" />
            </Array>
          </mxGeometry>
        </mxCell>
        <mxCell id="8Ad6xbHqiz1V-JdrsBlt-132" style="edgeStyle=orthogonalEdgeStyle;rounded=0;orthogonalLoop=1;jettySize=auto;html=1;" edge="1" parent="1" source="8Ad6xbHqiz1V-JdrsBlt-122" target="8Ad6xbHqiz1V-JdrsBlt-119">
          <mxGeometry relative="1" as="geometry" />
        </mxCell>
        <mxCell id="8Ad6xbHqiz1V-JdrsBlt-133" style="edgeStyle=orthogonalEdgeStyle;rounded=0;orthogonalLoop=1;jettySize=auto;html=1;" edge="1" parent="1" source="8Ad6xbHqiz1V-JdrsBlt-118" target="8Ad6xbHqiz1V-JdrsBlt-86">
          <mxGeometry relative="1" as="geometry">
            <Array as="points">
              <mxPoint x="440" y="265" />
              <mxPoint x="440" y="325" />
            </Array>
          </mxGeometry>
        </mxCell>
        <mxCell id="8Ad6xbHqiz1V-JdrsBlt-134" style="edgeStyle=orthogonalEdgeStyle;rounded=0;orthogonalLoop=1;jettySize=auto;html=1;" edge="1" parent="1" source="8Ad6xbHqiz1V-JdrsBlt-122" target="8Ad6xbHqiz1V-JdrsBlt-87">
          <mxGeometry relative="1" as="geometry">
            <Array as="points">
              <mxPoint x="630" y="265" />
              <mxPoint x="630" y="355" />
            </Array>
          </mxGeometry>
        </mxCell>
        <mxCell id="8Ad6xbHqiz1V-JdrsBlt-135" style="edgeStyle=orthogonalEdgeStyle;rounded=0;orthogonalLoop=1;jettySize=auto;html=1;" edge="1" parent="1" source="8Ad6xbHqiz1V-JdrsBlt-126" target="8Ad6xbHqiz1V-JdrsBlt-88">
          <mxGeometry relative="1" as="geometry">
            <Array as="points">
              <mxPoint x="820" y="265" />
              <mxPoint x="820" y="385" />
            </Array>
          </mxGeometry>
        </mxCell>
        <mxCell id="8Ad6xbHqiz1V-JdrsBlt-136" value="Types" style="swimlane;fontStyle=0;childLayout=stackLayout;horizontal=1;startSize=30;horizontalStack=0;resizeParent=1;resizeParentMax=0;resizeLast=0;collapsible=1;marginBottom=0;whiteSpace=wrap;html=1;" vertex="1" parent="1">
          <mxGeometry x="40" y="735" width="170" height="90" as="geometry" />
        </mxCell>
        <mxCell id="8Ad6xbHqiz1V-JdrsBlt-137" value="ID: serial" style="text;strokeColor=none;fillColor=none;align=left;verticalAlign=middle;spacingLeft=4;spacingRight=4;overflow=hidden;points=[[0,0.5],[1,0.5]];portConstraint=eastwest;rotatable=0;whiteSpace=wrap;html=1;" vertex="1" parent="8Ad6xbHqiz1V-JdrsBlt-136">
          <mxGeometry y="30" width="170" height="30" as="geometry" />
        </mxCell>
        <mxCell id="8Ad6xbHqiz1V-JdrsBlt-138" value="TypeName: varchar(10)" style="text;strokeColor=none;fillColor=none;align=left;verticalAlign=middle;spacingLeft=4;spacingRight=4;overflow=hidden;points=[[0,0.5],[1,0.5]];portConstraint=eastwest;rotatable=0;whiteSpace=wrap;html=1;" vertex="1" parent="8Ad6xbHqiz1V-JdrsBlt-136">
          <mxGeometry y="60" width="170" height="30" as="geometry" />
        </mxCell>
        <mxCell id="8Ad6xbHqiz1V-JdrsBlt-139" style="edgeStyle=orthogonalEdgeStyle;rounded=0;orthogonalLoop=1;jettySize=auto;html=1;entryX=0;entryY=0.5;entryDx=0;entryDy=0;" edge="1" parent="1" source="8Ad6xbHqiz1V-JdrsBlt-137" target="8Ad6xbHqiz1V-JdrsBlt-59">
          <mxGeometry relative="1" as="geometry">
            <Array as="points">
              <mxPoint x="10" y="780" />
              <mxPoint x="10" y="505" />
            </Array>
          </mxGeometry>
        </mxCell>
      </root>
    </mxGraphModel>
  </diagram>
</mxfile>
